<?xml version="1.0" encoding="UTF-8"?>
<svg width="127px" height="83px" viewBox="0 0 127 83" version="1.1" xmlns="http://www.w3.org/2000/svg" xmlns:xlink="http://www.w3.org/1999/xlink">
    <!-- Generator: Sketch 46.2 (44496) - http://www.bohemiancoding.com/sketch -->
    <title>if_1-11_511563</title>
    <desc>Created with Sketch.</desc>
    <defs></defs>
    <g id="Page-1" stroke="none" stroke-width="1" fill="none" fill-rule="evenodd">
        <g id="if_1-11_511563" transform="translate(-1.000000, -27.000000)">
            <path d="M55.211,109.952 L7.878,109.952 C4.294,109.952 1.378,107.036 1.378,103.452 L1.378,56.117 C1.378,52.533 4.294,49.617 7.878,49.617 L55.211,49.617 C58.795,49.617 61.711,52.533 61.711,56.117 L61.711,103.451 C61.711,107.036 58.795,109.952 55.211,109.952 Z M7.878,52.617 C5.948,52.617 4.378,54.187 4.378,56.117 L4.378,103.451 C4.378,105.381 5.948,106.951 7.878,106.951 L55.211,106.951 C57.141,106.951 58.711,105.381 58.711,103.451 L58.711,56.117 C58.711,54.187 57.141,52.617 55.211,52.617 L7.878,52.617 Z" id="Shape" fill="#313335" fill-rule="nonzero"></path>
            <path d="M31.545,109.952 C30.717,109.952 30.045,109.281 30.045,108.452 L30.045,51.117 C30.045,50.288 30.717,49.617 31.545,49.617 C32.373,49.617 33.045,50.288 33.045,51.117 L33.045,108.451 C33.045,109.28 32.373,109.952 31.545,109.952 Z" id="Shape" fill="#585D91" fill-rule="nonzero"></path>
            <path d="M60.212,81.285 L2.88,81.285 C2.052,81.285 1.38,80.614 1.38,79.785 C1.38,78.956 2.052,78.285 2.88,78.285 L60.212,78.285 C61.04,78.285 61.712,78.956 61.712,79.785 C61.712,80.614 61.04,81.285 60.212,81.285 Z" id="Shape" fill="#585D91" fill-rule="nonzero"></path>
            <path d="M32.328,48.548 C31.791,48.548 31.252,48.53 30.708,48.494 C30.248,48.463 29.827,48.222 29.567,47.84 C29.308,47.458 29.239,46.978 29.379,46.539 C29.993,44.627 35.605,27.858 43.565,27.858 C44.981,27.858 46.356,28.375 47.651,29.394 C50.786,31.863 51.874,35.065 50.714,38.411 C48.745,44.095 40.669,48.548 32.328,48.548 Z M43.565,30.858 C39.607,30.858 35.22,39.199 32.896,45.541 C40.5,45.345 46.559,41.24 47.879,37.43 C48.608,35.326 47.907,33.415 45.795,31.752 C45.032,31.15 44.303,30.858 43.565,30.858 Z" id="Shape" fill="#585D91" fill-rule="nonzero"></path>
            <path d="M30.61,48.698 C30.61,48.698 30.609,48.698 30.608,48.698 C22.135,48.698 13.962,44.135 12.001,38.312 C10.876,34.97 12.041,31.677 15.197,29.279 C16.477,28.306 17.827,27.812 19.209,27.812 C27.222,27.812 32.583,44.799 33.168,46.736 C33.302,47.178 33.225,47.656 32.958,48.034 C32.692,48.411 32.268,48.645 31.807,48.668 C31.405,48.688 31.008,48.698 30.61,48.698 Z M19.209,30.813 C18.488,30.813 17.77,31.093 17.012,31.668 C14.855,33.307 14.126,35.22 14.845,37.355 C16.143,41.209 22.109,45.356 29.67,45.678 C27.44,39.261 23.173,30.813 19.209,30.813 Z" id="Shape" fill="#585D91" fill-rule="nonzero"></path>
            <path d="M102.531,94.888 C100.791,94.888 98.08,94.214 96.856,92.99 L73.651,69.785 C71.438,67.571 69.592,63.389 69.451,60.263 L68.626,42.094 C68.548,40.391 69.134,38.796 70.276,37.601 C71.479,36.341 73.131,35.679 74.96,35.76 L93.127,36.587 C96.254,36.73 100.438,38.574 102.649,40.788 L125.853,63.992 C128.387,66.526 128.387,70.65 125.853,73.184 L106.048,92.99 C104.824,94.214 104.271,94.888 102.531,94.888 Z M74.664,38.753 C73.8,38.753 73.012,39.08 72.445,39.673 C71.875,40.27 71.583,41.082 71.622,41.958 L72.447,60.127 C72.556,62.519 74.079,65.971 75.772,67.665 L98.977,90.87 C100.291,92.184 102.612,92.184 103.926,90.87 L123.732,71.064 C125.096,69.699 125.096,67.479 123.732,66.114 L100.528,42.91 C98.835,41.217 95.383,39.694 92.99,39.585 L74.664,38.753 Z" id="Shape" fill="#313335" fill-rule="nonzero"></path>
            <path d="M81.811,54.606 C81.81,54.606 81.81,54.606 81.811,54.606 C78.772,54.606 76.3,52.134 76.3,49.096 C76.3,46.058 78.772,43.587 81.81,43.587 C84.848,43.587 87.319,46.059 87.319,49.096 C87.315,52.133 84.845,54.604 81.811,54.606 Z M81.81,46.587 C80.426,46.587 79.3,47.712 79.3,49.096 C79.3,50.479 80.426,51.605 81.81,51.606 C83.192,51.605 84.318,50.479 84.319,49.095 C84.318,47.713 83.192,46.587 81.81,46.587 Z" id="Shape" fill="#313335" fill-rule="nonzero"></path>
            <path d="M42.89,59.209 C42.862,59.209 42.834,59.209 42.806,59.209 C39.283,59.186 34.123,57.688 29.552,50.68 C29.1,49.986 29.295,49.057 29.99,48.604 C30.682,48.152 31.612,48.347 32.066,49.041 C35.107,53.704 38.828,56.183 42.826,56.209 C42.847,56.209 42.869,56.209 42.89,56.209 C47.231,56.209 51.661,53.316 55.053,48.26 C57.991,43.88 60.622,41.405 65,40.903 C74.025,39.866 82.475,47.668 82.831,48.001 C83.435,48.566 83.468,49.514 82.903,50.119 C82.338,50.725 81.388,50.759 80.783,50.193 C80.706,50.122 72.959,42.999 65.332,43.884 C61.872,44.284 59.968,46.319 57.544,49.932 C53.584,55.832 48.247,59.209 42.89,59.209 Z" id="Shape" fill="#585D91" fill-rule="nonzero"></path>
            <rect id="_x3C_Slice_x3E_" x="0" y="0" width="128" height="128"></rect>
            <g id="Page-1-Copy" transform="translate(99.000000, 66.000000) rotate(42.000000) translate(-99.000000, -66.000000) translate(90.000000, 57.000000)" fill-opacity="0.838286911" fill-rule="nonzero" fill="#313335">
                <path d="M9,1.10580205 C4.64015486,1.10580205 1.10580205,4.64015486 1.10580205,9 C1.10580205,13.3598451 4.64015486,16.894198 9,16.894198 C13.3598451,16.894198 16.894198,13.3598451 16.894198,9 C16.8857472,4.64366007 13.3563399,1.11425278 9,1.10580205 M9,18 C4.02943725,18 0,13.9705627 0,9 C0,4.02943725 4.02943725,9.13077564e-16 9,0 C13.9705627,-9.13077564e-16 18,4.02943725 18,9 C17.9915454,13.9670565 13.9670565,17.9915454 9,18" id="Fill-1"></path>
                <path d="M8.97560976,13 C7.3495935,13 6,11.9649123 6,10.6315789 C6,10.2827675 6.26207722,10 6.58536585,10 C6.90865449,10 7.17073171,10.2827675 7.17073171,10.6315789 C7.17073171,11.1578947 7.90243902,11.7368421 8.97560976,11.7368421 C10.0487805,11.7368421 10.8292683,11.1578947 10.8292683,10.6315789 C10.8292683,10.2827675 11.0913455,10.0000001 11.4146341,10.0000001 C11.7379228,10.0000001 12,10.2827675 12,10.6315789 C12,11.9649123 10.699187,13 9.02439024,13" id="Fill-4"></path>
                <path d="M7.505,8 C7.20676624,8 6.965,7.76297428 6.965,7.47058824 C6.965,7.23099412 6.766886,7.03676471 6.5225,7.03676471 C6.278114,7.03676471 6.08,7.23099412 6.08,7.47058824 C6.08,7.76297428 5.83823376,8 5.54,8 C5.24176624,8 5,7.76297428 5,7.47058824 C5,6.65840478 5.67157288,6 6.5,6 C7.32842712,6 8,6.65840478 8,7.47058824 C8,7.76297428 7.75823376,8 7.46,8" id="Fill-6"></path>
                <path d="M12.475,8 C12.1885424,7.98437394 11.9645569,7.75186305 11.965,7.47058824 C11.965,7.23099412 11.766886,7.03676471 11.5225,7.03676471 C11.278114,7.03676471 11.08,7.23099412 11.08,7.47058824 C11.08,7.76297426 10.8382337,7.99999996 10.54,7.99999996 C10.2417663,7.99999996 10,7.76297426 10,7.47058824 C10,6.65840478 10.6715729,6 11.5,6 C12.3284271,6 13,6.65840478 13,7.47058824 C13,7.76297428 12.7582338,8 12.46,8" id="Fill-8"></path>
            </g>
        </g>
    </g>
</svg>